<svg xmlns="http://www.w3.org/2000/svg" viewBox="0 0 100 100" width="100%" height="100%">
  <circle cx="50" cy="50" r="46" fill="#FCF9EE" stroke="#D4AF37" stroke-width="1.5"/>
  <!-- Elegant Rice Grain Icon -->
  <path d="M50,22 C56,35 56,48 50,78 C44,48 44,35 50,22 Z" fill="#D4AF37" opacity="0.8"/>
  <path d="M50,28 C53,38 53,46 50,70 C47,46 47,38 50,28 Z" fill="#FFF"/>
  <path d="M47,35 C42,42 42,48 48,50 C44,52 44,58 48,62" stroke="#D4AF37" stroke-width="1" fill="none" stroke-linecap="round"/>
  <path d="M53,38 C58,45 58,51 52,53 C56,55 56,61 52,65" stroke="#D4AF37" stroke-width="1" fill="none" stroke-linecap="round"/>
</svg>
